<?xml version="1.0" standalone="no"?>
<!DOCTYPE svg PUBLIC "-//W3C//DTD SVG 20010904//EN"
 "http://www.w3.org/TR/2001/REC-SVG-20010904/DTD/svg10.dtd">
<svg version="1.0" xmlns="http://www.w3.org/2000/svg"
 width="500.000000pt" height="500.000000pt" viewBox="0 0 500.000000 500.000000"
 preserveAspectRatio="xMidYMid meet">

<g transform="translate(0.000000,500.000000) scale(0.100000,-0.100000)"
fill="#000000" stroke="none">
<path d="M2365 2940 c-38 -4 -158 -28 -265 -53 -107 -25 -229 -51 -270 -57
-149 -23 -167 -29 -204 -70 -27 -30 -36 -50 -41 -95 -5 -37 -4 -60 4 -68 8 -8
11 -6 11 8 0 36 50 104 93 127 48 24 144 26 335 8 287 -28 442 -39 588 -45
181 -6 178 7 -6 25 -115 11 -237 31 -425 69 -55 12 -103 21 -107 21 -5 0 -8 4
-8 9 0 13 109 47 209 66 174 32 413 11 566 -50 70 -28 49 -8 -39 36 -113 58
-288 86 -441 69z"/>
<path d="M2538 2783 c7 -3 16 -2 19 1 4 3 -2 6 -13 5 -11 0 -14 -3 -6 -6z"/>
<path d="M2650 2762 c36 -7 175 -16 310 -21 262 -10 330 -21 423 -67 l52 -26
-30 32 c-37 40 -84 64 -161 84 -50 13 -116 15 -360 13 -274 -2 -293 -3 -234
-15z"/>
<path d="M1870 2681 c-38 -12 -85 -38 -99 -55 -17 -20 -13 -20 34 0 66 27 186
13 209 -25 5 -7 70 -11 204 -9 l197 1 -170 9 c-157 9 -173 11 -207 35 -39 26
-103 52 -128 52 -8 -1 -26 -4 -40 -8z"/>
<path d="M3105 2630 c-16 -3 -43 -14 -60 -24 -16 -9 -21 -14 -10 -11 41 13
142 17 178 7 44 -12 48 -8 10 11 -38 19 -82 26 -118 17z"/>
<path d="M1850 2600 c-11 -7 -5 -8 20 -4 43 8 51 14 19 14 -13 0 -31 -5 -39
-10z"/>
<path d="M3128 2573 c7 -3 16 -2 19 1 4 3 -2 6 -13 5 -11 0 -14 -3 -6 -6z"/>
<path d="M3017 2524 c-4 -4 -7 -18 -7 -31 0 -21 4 -24 33 -21 27 2 32 7 32 28
0 19 -6 26 -25 28 -14 2 -29 0 -33 -4z"/>
<path d="M1773 2508 c-38 -47 -173 -283 -169 -294 10 -26 45 -15 68 21 23 35
23 35 98 35 l76 0 9 -32 c11 -38 49 -51 59 -21 3 10 -14 81 -37 158 -39 130
-44 140 -68 143 -14 2 -30 -3 -36 -10z m42 -127 l13 -51 -50 0 c-50 0 -50 0
-36 23 8 12 23 37 32 55 10 19 20 32 22 29 3 -3 11 -28 19 -56z"/>
<path d="M2710 2498 c-11 -27 -40 -212 -40 -257 0 -18 5 -31 13 -32 22 -1 151
-1 173 0 12 1 33 12 48 26 32 30 36 83 6 110 -20 18 -20 18 5 41 38 35 37 77
-1 112 -22 19 -36 22 -110 22 -78 0 -85 -2 -94 -22z m155 -42 c17 -12 18 -18
7 -40 -10 -23 -17 -26 -62 -26 l-50 0 0 33 c0 19 3 37 7 40 12 12 79 7 98 -7z
m-21 -122 c19 -7 22 -59 4 -70 -6 -4 -33 -8 -60 -10 l-48 -2 0 37 c0 21 3 41
7 44 8 9 76 9 97 1z"/>
<path d="M3287 2506 c-3 -7 -9 -34 -12 -60 -8 -50 -11 -52 -39 -31 -63 48
-146 -24 -146 -125 0 -73 71 -114 127 -75 19 13 22 13 27 0 8 -23 45 -18 56 8
14 31 51 277 45 288 -9 14 -52 11 -58 -5z m-49 -138 c17 -17 15 -69 -4 -96
-29 -42 -74 -22 -74 35 0 52 49 90 78 61z"/>
<path d="M2277 2483 c-2 -5 -7 -20 -11 -35 -4 -18 -13 -28 -25 -28 -20 0 -31
-17 -24 -37 3 -7 11 -13 20 -13 12 0 14 -10 8 -61 -6 -54 -5 -63 16 -85 22
-23 60 -31 93 -18 19 7 22 56 4 53 -49 -6 -56 8 -42 79 5 26 12 31 38 34 23 2
32 8 34 26 3 19 -1 22 -27 22 -29 0 -31 3 -31 35 0 30 -3 35 -24 35 -14 0 -27
-3 -29 -7z"/>
<path d="M1992 2418 c-11 -14 -32 -116 -32 -155 0 -52 70 -81 117 -48 19 13
22 13 27 0 8 -21 43 -19 54 3 5 9 15 57 22 106 10 74 10 90 -1 97 -32 20 -54
-5 -63 -73 -8 -63 -29 -98 -57 -98 -28 0 -33 22 -22 90 10 61 3 90 -21 90 -8
0 -18 -6 -24 -12z"/>
<path d="M2485 2422 c-81 -27 -114 -128 -61 -189 21 -24 31 -28 80 -28 49 0
59 4 86 30 89 89 12 225 -105 187z m63 -54 c17 -17 15 -69 -4 -96 -16 -23 -58
-30 -69 -11 -4 6 -7 27 -7 47 0 53 50 90 80 60z"/>
<path d="M3007 2416 c-15 -15 -42 -178 -33 -201 8 -21 43 -19 54 3 5 9 15 57
22 106 10 74 10 90 -1 97 -19 12 -25 11 -42 -5z"/>
<path d="M1559 2096 c-8 -8 3 -126 12 -126 5 0 9 11 9 24 0 18 7 25 29 29 33
7 49 40 31 62 -11 14 -70 21 -81 11z m59 -33 c-5 -26 -38 -29 -38 -4 0 15 6
21 21 21 14 0 19 -5 17 -17z"/>
<path d="M2210 2080 c0 -13 -7 -20 -20 -20 -42 0 -54 -82 -12 -88 26 -4 29 6
6 22 -18 13 -9 46 12 46 9 0 14 -10 12 -28 -1 -15 2 -33 6 -40 15 -25 26 1 26
64 0 50 -3 64 -15 64 -8 0 -15 -9 -15 -20z"/>
<path d="M2325 2092 c-3 -3 -5 -32 -5 -64 l0 -58 31 0 c17 0 39 5 50 10 19 11
26 40 12 54 -5 4 -8 20 -8 34 0 24 -4 27 -37 28 -21 1 -40 -1 -43 -4z m55 -16
c0 -2 -7 -9 -15 -16 -12 -10 -15 -10 -15 4 0 9 7 16 15 16 8 0 15 -2 15 -4z
m8 -63 c-5 -26 -38 -29 -38 -4 0 15 6 21 21 21 14 0 19 -5 17 -17z"/>
<path d="M2708 2093 c-15 -4 -18 -16 -18 -64 0 -33 4 -59 10 -59 6 0 10 11 10
25 0 38 36 34 45 -5 4 -16 11 -30 16 -30 13 0 11 54 -3 68 -8 8 -8 12 -1 12
15 0 23 36 10 49 -11 11 -37 13 -69 4z m42 -34 c-11 -19 -40 -27 -40 -10 0 15
31 42 41 35 5 -3 5 -13 -1 -25z"/>
<path d="M2805 2090 c4 -6 11 -8 16 -5 14 9 11 15 -7 15 -8 0 -12 -5 -9 -10z"/>
<path d="M3110 2035 c0 -53 3 -65 16 -65 12 0 15 6 10 23 -3 12 -6 41 -6 65 0
23 -4 42 -10 42 -6 0 -10 -28 -10 -65z"/>
<path d="M1670 2050 c-23 -23 -24 -33 -10 -61 14 -26 55 -24 74 3 9 12 16 26
16 30 0 11 -38 48 -50 48 -5 0 -19 -9 -30 -20z m48 -24 c4 -20 -16 -48 -29
-40 -11 6 -12 48 -2 58 11 10 28 1 31 -18z"/>
<path d="M1858 2040 c-13 -28 -17 -31 -17 -13 -1 20 -17 40 -26 31 -2 -2 2
-22 8 -46 14 -51 37 -53 49 -3 14 52 4 72 -14 31z"/>
<path d="M2493 2050 c-7 -25 -12 -25 -29 -3 -20 28 -28 7 -10 -28 15 -29 15
-35 1 -56 -14 -21 -14 -23 0 -23 9 0 24 18 34 43 29 65 34 87 21 87 -7 0 -14
-9 -17 -20z"/>
<path d="M2560 2060 c0 -5 5 -10 10 -10 6 0 10 5 10 10 0 6 -4 10 -10 10 -5 0
-10 -4 -10 -10z"/>
<path d="M2901 2039 l-20 -32 -6 26 c-4 15 -13 27 -21 27 -17 0 -17 4 0 -45
19 -55 37 -55 60 0 22 55 15 70 -13 24z"/>
<path d="M3076 2061 c-4 -6 -13 -8 -21 -4 -12 4 -15 -5 -15 -41 0 -25 5 -46
10 -46 6 0 10 12 10 27 0 14 7 35 17 45 9 10 14 21 11 24 -3 3 -9 1 -12 -5z"/>
<path d="M3176 2057 c-12 -9 -17 -23 -14 -47 3 -33 5 -35 38 -35 29 0 36 5 45
29 8 24 6 31 -14 47 -28 23 -32 23 -55 6z m39 -38 c0 -15 -7 -25 -17 -27 -13
-3 -18 3 -18 21 0 13 3 27 7 31 13 12 28 -1 28 -25z"/>
<path d="M3270 2015 c0 -35 4 -54 10 -50 6 3 10 17 10 30 0 13 3 30 6 39 11
29 24 17 24 -23 0 -40 13 -61 25 -41 4 6 4 29 0 51 -6 34 -10 40 -28 37 -12
-1 -28 1 -34 5 -10 6 -13 -6 -13 -48z"/>
<path d="M1768 2020 c4 -43 19 -61 33 -39 12 19 11 62 -1 54 -5 -3 -10 1 -10
9 0 9 -6 16 -13 16 -9 0 -11 -12 -9 -40z"/>
<path d="M1900 2039 c-24 -45 27 -93 59 -55 9 11 7 12 -13 9 -37 -7 -42 16 -6
28 36 13 35 33 -3 37 -18 2 -29 -3 -37 -19z m40 1 c0 -5 -5 -10 -11 -10 -5 0
-7 5 -4 10 3 6 8 10 11 10 2 0 4 -4 4 -10z"/>
<path d="M1990 2013 c0 -23 5 -43 10 -43 6 0 10 11 10 25 0 14 9 34 19 44 19
19 19 20 -10 19 -27 -1 -29 -3 -29 -45z"/>
<path d="M2064 2047 c-3 -9 -4 -28 -2 -44 2 -24 8 -28 32 -28 16 0 31 5 33 11
2 7 -6 10 -22 7 -34 -7 -34 23 1 31 14 4 24 12 21 19 -6 18 -56 21 -63 4z m41
-7 c-3 -5 -11 -10 -16 -10 -6 0 -7 5 -4 10 3 6 11 10 16 10 6 0 7 -4 4 -10z"/>
<path d="M2800 2015 c0 -25 5 -45 10 -45 6 0 10 20 10 45 0 25 -4 45 -10 45
-5 0 -10 -20 -10 -45z"/>
<path d="M2950 2039 c-24 -45 27 -93 59 -55 9 11 6 12 -14 8 -34 -6 -34 24 1
32 32 8 26 30 -9 34 -18 2 -29 -3 -37 -19z m40 1 c0 -5 -5 -10 -11 -10 -5 0
-7 5 -4 10 3 6 8 10 11 10 2 0 4 -4 4 -10z"/>
<path d="M3382 2048 c-17 -17 -15 -67 3 -74 24 -9 39 6 19 21 -20 14 -13 45
10 45 12 0 15 -11 13 -47 -2 -43 -5 -48 -24 -47 -13 0 -23 -5 -23 -13 0 -17
44 -17 58 0 9 11 17 80 13 115 -1 15 -53 16 -69 0z"/>
<path d="M2560 1974 c0 -8 5 -12 10 -9 6 3 10 10 10 16 0 5 -4 9 -10 9 -5 0
-10 -7 -10 -16z"/>
</g>
</svg>
